<svg width="32" height="32" viewBox="0 0 32 32" fill="none" xmlns="http://www.w3.org/2000/svg">
<g clip-path="url(#clip0)">
<path d="M7.308 2.65599C7.18993 2.50412 7.0409 2.3791 6.8708 2.28924C6.7007 2.19939 6.51343 2.14676 6.32143 2.13484C6.12943 2.12292 5.93709 2.15199 5.75719 2.22012C5.57729 2.28825 5.41394 2.39388 5.278 2.52999L3.21 4.6C2.244 5.568 1.888 6.938 2.31 8.14C4.06147 13.1152 6.91059 17.6322 10.646 21.356C14.3698 25.0914 18.8869 27.9405 23.862 29.692C25.064 30.114 26.434 29.758 27.402 28.792L29.47 26.724C29.6061 26.5881 29.7117 26.4247 29.7799 26.2448C29.848 26.0649 29.8771 25.8726 29.8652 25.6806C29.8532 25.4886 29.8006 25.3013 29.7107 25.1312C29.6209 24.9611 29.4959 24.8121 29.344 24.694L24.73 21.106C24.5677 20.9802 24.379 20.8928 24.1781 20.8505C23.9771 20.8083 23.7692 20.8122 23.57 20.862L19.19 21.956C18.6054 22.1021 17.9928 22.0944 17.4121 21.9335C16.8313 21.7726 16.3021 21.4641 15.876 21.038L10.964 16.124C10.5375 15.6981 10.2286 15.169 10.0674 14.5882C9.9062 14.0074 9.89812 13.3948 10.044 12.81L11.14 8.43C11.1898 8.23079 11.1937 8.02287 11.1515 7.82192C11.1092 7.62098 11.0218 7.43225 10.896 7.27L7.308 2.65599ZM3.768 1.02199C4.11799 0.671894 4.53845 0.400256 5.00147 0.225117C5.4645 0.0499791 5.95948 -0.0246516 6.45356 0.00618098C6.94764 0.0370135 7.4295 0.172604 7.86716 0.403948C8.30482 0.635293 8.68825 0.957098 8.992 1.348L12.58 5.96C13.238 6.806 13.47 7.908 13.21 8.948L12.116 13.328C12.0594 13.5549 12.0625 13.7925 12.1249 14.0178C12.1872 14.2431 12.3068 14.4485 12.472 14.614L17.386 19.528C17.5517 19.6935 17.7574 19.8133 17.9831 19.8757C18.2088 19.9381 18.4468 19.9409 18.674 19.884L23.052 18.79C23.5652 18.6617 24.1009 18.6517 24.6186 18.7608C25.1362 18.87 25.6223 19.0954 26.04 19.42L30.652 23.008C32.31 24.298 32.462 26.748 30.978 28.23L28.91 30.298C27.43 31.778 25.218 32.428 23.156 31.702C17.8784 29.845 13.0865 26.8237 9.136 22.862C5.17457 18.912 2.15321 14.1209 0.295996 8.844C-0.428004 6.784 0.221996 4.57 1.702 3.09L3.77 1.02199H3.768Z" fill="white"/>
</g>
<defs>
<clipPath id="clip0">
<rect width="32" height="32" fill="white"/>
</clipPath>
</defs>
</svg>
