<svg width="19" height="14" viewBox="0 0 19 14" fill="none" xmlns="http://www.w3.org/2000/svg">
<path d="M18.4635 1.62166C18.5917 1.13555 18.4635 0.777771 17.8467 0.777771H15.8056C15.2858 0.777771 15.0467 1.08499 14.9185 1.42722C14.9185 1.42722 13.8789 4.26999 12.4096 6.11333C11.9349 6.6461 11.7166 6.81722 11.4567 6.81722C11.3285 6.81722 11.1309 6.6461 11.1309 6.15999V1.62166C11.1309 1.03833 10.9854 0.777771 10.5557 0.777771H7.34685C7.02111 0.777771 6.82705 1.04999 6.82705 1.30277C6.82705 1.85499 7.5617 1.98333 7.63793 3.53888V6.91444C7.63793 7.65333 7.52011 7.78944 7.26022 7.78944C6.56716 7.78944 4.88303 4.93499 3.88503 1.66833C3.68405 1.03444 3.48652 0.777771 2.96327 0.777771H0.922216C0.340049 0.777771 0.222229 1.08499 0.222229 1.42722C0.222229 2.03388 0.915285 5.04777 3.44841 9.02999C5.136 11.7483 7.51318 13.2222 9.67552 13.2222C10.975 13.2222 11.1344 12.8955 11.1344 12.3317C11.1344 9.73388 11.0166 9.48888 11.6681 9.48888C11.9695 9.48888 12.4893 9.65999 13.7022 10.9705C15.0883 12.5261 15.317 13.2222 16.0932 13.2222H18.1343C18.7164 13.2222 19.011 12.8955 18.8412 12.25C18.4531 10.8928 15.8299 8.10055 15.712 7.91388C15.4106 7.47833 15.4972 7.28388 15.712 6.89499C15.7155 6.8911 18.207 2.95555 18.4635 1.62166Z" fill="white"/>
</svg>
