<svg width="32" height="32" viewBox="0 0 32 32" fill="none" xmlns="http://www.w3.org/2000/svg">
<path d="M0 8C0 6.93913 0.421427 5.92172 1.17157 5.17157C1.92172 4.42143 2.93913 4 4 4H28C29.0609 4 30.0783 4.42143 30.8284 5.17157C31.5786 5.92172 32 6.93913 32 8V24C32 25.0609 31.5786 26.0783 30.8284 26.8284C30.0783 27.5786 29.0609 28 28 28H4C2.93913 28 1.92172 27.5786 1.17157 26.8284C0.421427 26.0783 0 25.0609 0 24V8ZM4 6C3.46957 6 2.96086 6.21071 2.58579 6.58579C2.21071 6.96086 2 7.46957 2 8V8.434L16 16.834L30 8.434V8C30 7.46957 29.7893 6.96086 29.4142 6.58579C29.0391 6.21071 28.5304 6 28 6H4ZM30 10.766L20.484 16.476L30 22.228V10.768V10.766ZM29.932 24.522L18.542 17.64L16 19.166L13.456 17.64L2.068 24.52C2.1824 24.9449 2.4337 25.3201 2.78298 25.5877C3.13225 25.8553 3.56002 26.0002 4 26H28C28.4397 26.0003 28.8673 25.8557 29.2165 25.5885C29.5658 25.3213 29.8172 24.9465 29.932 24.522ZM2 22.228L11.516 16.476L2 10.766V22.226V22.228Z" fill="white"/>
</svg>
