<svg width="14" height="18" viewBox="0 0 14 18" fill="none" xmlns="http://www.w3.org/2000/svg">
<path d="M11.6491 11.7047C10.542 12.3087 9.01861 12.5482 8.01246 12.6385L8.85698 13.3535L11.9401 16.002C13.0674 16.9947 11.2329 18.5464 10.0934 17.5883C9.32167 16.9149 8.19026 15.943 7.01036 14.9294L3.92727 17.5848C2.78778 18.5394 0.953284 16.9739 2.09277 15.9985C2.87668 15.3251 3.99596 14.3532 5.17586 13.35L6.00826 12.635C5.01423 12.5447 3.46663 12.3191 2.34734 11.7013C1.03006 10.9723 0.452232 10.5454 0.961366 9.65328C1.26038 9.1465 2.08065 8.71955 3.16761 9.45543C3.16761 9.45543 4.6344 10.4586 7.00228 10.4586C9.37015 10.4586 10.8369 9.45543 10.8369 9.45543C11.9239 8.72302 12.7401 9.1465 13.0432 9.65328C13.5442 10.5454 12.9664 10.9723 11.6491 11.7047ZM1.75739 4.61319C1.75739 2.12438 4.11315 0.111115 6.99824 0.111115C9.88333 0.111115 12.2391 2.12438 12.2391 4.61319C12.2391 7.09158 9.88333 9.10484 6.99824 9.10484C4.11315 9.10484 1.75739 7.09158 1.75739 4.61319ZM4.42428 4.61319C4.42428 5.83156 5.57994 6.8243 6.99824 6.8243C8.41654 6.8243 9.57219 5.83156 9.57219 4.61319C9.57219 3.3844 8.41654 2.39165 6.99824 2.39165C5.57994 2.39165 4.42428 3.3844 4.42428 4.61319Z" fill="white"/>
</svg>
